<svg xmlns="http://www.w3.org/2000/svg" xmlns:xlink="http://www.w3.org/1999/xlink" width="22.369" height="22.342" viewBox="0 0 22.369 22.342"><defs><style>.a{fill:none;}.b{clip-path:url(#a);}.c{fill:#fff;}</style><clipPath id="a"><rect class="a" width="22.369" height="22.342"/></clipPath></defs><g transform="translate(13.555 13.539)"><g class="b" transform="translate(-13.555 -13.539)"><path class="c" d="M15.754,31.648a8.94,8.94,0,0,1-3.062-.685,20.98,20.98,0,0,1-5.573-3.348,23.016,23.016,0,0,1-4.394-4.869A16.682,16.682,0,0,1,.252,17.42a5.269,5.269,0,0,1-.114-2.378,2.568,2.568,0,0,1,.742-1.37C1.45,13.122,2,12.551,2.573,12a1.792,1.792,0,0,1,2.473-.038c.8.761,1.864,1.826,2.758,2.777A1.456,1.456,0,0,1,7.746,17.1l-1.617,1.6c-.19.19-.19.228-.1.457a10.29,10.29,0,0,0,1.674,2.568,17.956,17.956,0,0,0,2.853,2.739A11.66,11.66,0,0,0,12.6,25.676a.285.285,0,0,0,.361-.076l1.6-1.6a1.9,1.9,0,0,1,.989-.571,1.617,1.617,0,0,1,1.484.495q1.4,1.341,2.739,2.739a1.5,1.5,0,0,1-.019,2.416c-.723.742-1.122,1.1-1.674,1.693a3.083,3.083,0,0,1-2.321.875" transform="translate(-0.043 -9.298)"/><path class="c" d="M59.283-.01a12.82,12.82,0,0,1,1.408.285,12.516,12.516,0,0,1,5.516,3.043,12.687,12.687,0,0,1,3.842,7.038c.038.171-.019.209-.171.228l-1.465.247c-.247.038-.247.038-.285-.19a10.29,10.29,0,0,0-.647-2.206,10.785,10.785,0,0,0-4.6-5.193A10.443,10.443,0,0,0,59.131,1.93c-.247-.038-.247-.038-.209-.266L59.131.142c.019-.076.019-.171.152-.152" transform="translate(-47.699 0.01)"/><path class="c" d="M58.061,23.284a7.228,7.228,0,0,1,2.625.856,7.685,7.685,0,0,1,3.9,5.345c.038.228.038.228-.19.266l-1.522.266c-.133.019-.171-.019-.19-.152a5.763,5.763,0,0,0-4.831-4.66c-.133-.019-.152-.076-.152-.19l.228-1.6c.019-.1.038-.152.133-.133" transform="translate(-46.725 -18.853)"/></g></g></svg>