<svg xmlns="http://www.w3.org/2000/svg" width="119.747" height="127.522" viewBox="0 0 119.747 127.522"><defs><style>.a{fill:#ffa85d;}</style></defs><g transform="translate(-1109.143 -410.367)"><path class="a" d="M1167.259,410.367c1.869.732,2.915,2.434,4.291,3.726a65.3,65.3,0,0,0,17.2,11.306,119.931,119.931,0,0,0,29.13,9.161c.693.13,1.4.2,2.079.378a3.764,3.764,0,0,1,2.93,3.576,145.23,145.23,0,0,1-1.458,20.085c-.157,1.183-.237,1.092-1.257.448a4.9,4.9,0,0,1-2.487-5.649,91.447,91.447,0,0,0,.925-13.02c.03-1.058-.217-1.389-1.272-1.59-13.547-2.564-26.544-6.687-38.44-13.842a54.51,54.51,0,0,1-11.969-9.48c-.746-.8-1.156-.633-1.881.025-10.041,9.112-21.344,16.031-34.505,19.673a59.65,59.65,0,0,1-15.487,2.131c-1.6.014-1.776.127-1.759,1.659.2,17.657,2.805,34.879,9.462,51.338a82.954,82.954,0,0,0,17.481,27.309,67.564,67.564,0,0,0,23.792,15.787,3.021,3.021,0,0,0,2.275.018,59.438,59.438,0,0,0,19.022-11.133,4.726,4.726,0,0,1,5.156-1.046c.54.184,1.4-.068,1.584.454.224.653-.624.977-1.054,1.367a69.41,69.41,0,0,1-23.129,14.342,7.6,7.6,0,0,1-5.775-.146,73.832,73.832,0,0,1-33.573-27.186c-7.563-10.941-12.333-23.092-15.391-35.959a147.218,147.218,0,0,1-3.817-26.181c-.195-3.613-.174-7.217-.189-10.826a3.839,3.839,0,0,1,4.139-4.119c12.218.329,23.286-3.389,33.7-9.469a84.2,84.2,0,0,0,15.847-11.793,10.473,10.473,0,0,1,1.939-1.343Z"/><path class="a" d="M1223.82,482.162c.178,17.559-14.546,32.122-32.235,31.99a32.248,32.248,0,0,1-31.779-32.742c.3-17.051,14.632-31.176,31.849-31.3C1209.215,449.981,1224.019,464.476,1223.82,482.162Zm-7.861-2.109v-.006h1c.373,0,.747,0,1.121,0,1.334-.013,1.485-.189,1.288-1.549a28.1,28.1,0,0,0-5.011-12.6c-.9-1.246-.948-1.266-2.053-.257q-8.96,8.194-17.913,16.4c-1.45,1.329-2.311,1.4-3.784.136q-4.442-3.808-8.83-7.683c-1.593-1.4-1.9-2.657-.964-3.693.954-1.057,2.209-.912,3.8.477,2.284,1.991,4.574,3.976,6.815,6.015.688.626,1.118.7,1.844.009,2.591-2.455,5.256-4.83,7.894-7.235q4.279-3.9,8.557-7.8c.362-.33.842-.617.2-1.168a27.588,27.588,0,0,0-14.941-6.536c-.844-.106-1.09.29-1.07,1.077.036,1.452.018,2.905.005,4.358-.012,1.587-.82,2.532-2.115,2.507-1.257-.025-2.026-.939-2.039-2.455-.012-1.453-.053-2.907.01-4.358.044-.991-.393-1.238-1.271-1.121a28.065,28.065,0,0,0-14.139,6.011c-.5.4-.465.648-.035,1.063q1.749,1.685,3.432,3.435c1.063,1.1,1.12,2.28.2,3.189s-2.1.825-3.2-.235c-1.164-1.124-2.307-2.273-3.439-3.429-.347-.355-.59-.506-.979-.022a27.858,27.858,0,0,0-6.078,14.365c-.1.8.2,1.136,1.032,1.114,1.535-.042,3.071-.023,4.607,0a2.085,2.085,0,1,1,.014,4.148c-1.536.024-3.072.036-4.607,0-.818-.02-1.148.289-1.046,1.1a27.735,27.735,0,0,0,5.931,14.164c.437.544.738.634,1.253.075.956-1.037,1.981-2.011,2.982-3.005,1.377-1.37,2.546-1.533,3.545-.506.981,1.009.822,2.105-.511,3.45-1.023,1.032-2.036,2.075-3.089,3.076-.463.439-.539.7.023,1.153a28.187,28.187,0,0,0,14.148,5.989c.946.126,1.253-.255,1.22-1.178-.054-1.492-.031-2.989-.006-4.483a2.084,2.084,0,1,1,4.147.035c.022,1.536.037,3.073,0,4.608-.023.846.341,1.119,1.126,1.018a27.8,27.8,0,0,0,14.16-5.944c.564-.453.594-.746.056-1.249-1.151-1.078-2.26-2.2-3.353-3.34-1.047-1.091-1.082-2.3-.153-3.187a2.1,2.1,0,0,1,3.108.2c1.14,1.089,2.258,2.2,3.343,3.349.475.5.77.581,1.25-.016a27.9,27.9,0,0,0,5.96-14.154c.115-.889-.257-1.177-1.119-1.154-1.576.044-3.156.039-4.732,0a2.019,2.019,0,0,1-2.088-2.02,2.063,2.063,0,0,1,2.127-2.114C1214.38,480.028,1215.17,480.053,1215.959,480.053Z" transform="translate(5.068 3.976)"/><path class="a" d="M1121.824,449.855c-.041-6.369,1.278-7.657,6.473-7.864a36.469,36.469,0,0,0,13.569-3.357,54.418,54.418,0,0,0,9.6-5.5c.336-.243.674-.487,1.029-.7a2.131,2.131,0,0,1,2.991.459,2.094,2.094,0,0,1-.542,2.97c-6.851,5.024-14.277,8.754-22.78,10.037a40.471,40.471,0,0,1-5.074.454c-.768.018-1.137.3-1.1,1.122a100.152,100.152,0,0,0,7.333,34.752,62.906,62.906,0,0,0,10.95,17.711c.11.124.221.247.322.379a2.157,2.157,0,0,1-.107,3.12,2.11,2.11,0,0,1-3.09-.316,55.655,55.655,0,0,1-4.8-6.038c-6.623-9.588-10.49-20.291-12.781-31.629A106.828,106.828,0,0,1,1121.824,449.855Z" transform="translate(1.269 2.167)"/><path class="a" d="M1148.606,501.155a2.071,2.071,0,1,1-2-2.078A2,2,0,0,1,1148.606,501.155Z" transform="translate(3.533 8.874)"/></g></svg>