<svg xmlns="http://www.w3.org/2000/svg" width="82.104" height="109.417" viewBox="0 0 82.104 109.417"><defs><style>.a{fill:#ffa85d;}</style></defs><g transform="translate(-1120.079 -133.913)"><path class="a" d="M1143.707,243.33c-2.836-2.608-4.79-5.913-7.015-9-1.006-1.393-2-2.079-3.827-1.744-2.866.526-5.785.764-8.683,1.115-1.3.157-2.653.4-3.584-.848-1-1.332-.359-2.6.263-3.872q6.319-12.9,12.613-25.81a10.683,10.683,0,0,0-3.852-13.92c-3.368-2.235-4.529-4.835-3.293-8.778a9.122,9.122,0,0,0-1.157-8.483c-2.373-3.57-1.955-6.235,1.24-9.064,2.42-2.142,3.439-4.419,2.814-7.715-.7-3.7,1.594-6.879,5.5-7.66a6.862,6.862,0,0,0,5.6-5.015c1.484-4.225,4.436-5.84,8.807-4.673a6.817,6.817,0,0,0,7.081-1.7c3.37-3.08,6.778-2.955,10.246.034a6.3,6.3,0,0,0,6.315,1.356c4.361-1.229,7.222.057,9.067,4.245,1.312,2.977,3.176,4.85,6.469,5.587,3.568.8,5.463,3.331,5.129,6.952-.343,3.713.558,6.522,3.5,8.985,2.753,2.3,3.094,5.093,1.051,8.327-1.948,3.084-2.426,5.886-.995,9.358,1.374,3.33-.091,6.567-3.421,8.1-3.018,1.393-3.716,3.773-4.754,6.693-1.421,4,.094,6.793,1.622,9.971q5.59,11.627,11.03,23.326c1.591,3.408.453,5-3.215,4.6-3.063-.336-6.132-.656-9.171-1.149a2.8,2.8,0,0,0-3.06,1.308c-2.385,3.176-4.48,6.577-7.241,9.464h-1.462a6.316,6.316,0,0,1-2.588-3.116q-6.037-12.89-12.137-25.751c-.369-.778-.532-2.092-1.4-2.1-1.066-.008-1.169,1.379-1.562,2.207q-6.151,12.971-12.214,25.984a6.173,6.173,0,0,1-2.26,2.775Zm3.58-100.49c-1.563-.045-2.16.955-2.526,2.055a11.066,11.066,0,0,1-8.51,7.564c-1.965.471-2.5,1.572-2.147,3.354.875,4.386-.794,7.787-4.106,10.513-1.283,1.057-1.677,2.2-.617,3.56a11.236,11.236,0,0,1,1.516,11.921,2.257,2.257,0,0,0,1.2,3.054,12.735,12.735,0,0,1,6.6,9.954c.231,2.036,1.105,2.779,3.118,2.786,3.948.014,7.319,1.385,9.589,4.811,1.271,1.919,2.735,2.11,4.771,1.053,3.5-1.818,7.138-2.17,10.681.009,1.789,1.1,3.1.841,4.285-.972,2.292-3.519,5.473-5.447,9.827-5.118,1.953.148,3.026-.773,3.176-2.808a10.606,10.606,0,0,1,6.119-9.057c2.067-1.062,2.344-2.345,1.5-4.334a9.849,9.849,0,0,1,1.231-10.358c1.39-1.841,1.274-3.216-.534-4.751a10.664,10.664,0,0,1-3.736-10.711c.343-1.825-.437-2.807-2.189-3.091a10.346,10.346,0,0,1-8.339-6.684c-.957-2.324-2.42-2.858-4.808-2.325a10.272,10.272,0,0,1-10.064-2.921c-1.446-1.475-2.648-1.412-4.149-.008a10.8,10.8,0,0,1-10.35,2.808C1148.269,143.017,1147.709,142.923,1147.287,142.839Zm-20,85.141c2.547-.282,5.1-.508,7.641-.865a3.944,3.944,0,0,1,4.269,2.059c1.079,1.712,2.325,3.318,3.51,4.961.628.87,1.269,1.352,1.921,0q5.7-11.829,11.4-23.655c.487-1.012.6-1.7-.99-1.427-2.758.475-4.868-.743-6.57-2.826-.667-.816-1.318-1.646-2.02-2.43-1.771-1.977-4.227-1.422-6.412-1.5-1.583-.055-1.693,1.773-2.227,2.863-3.316,6.768-6.56,13.572-9.807,20.373A3.512,3.512,0,0,0,1127.29,227.98Zm38.313-19.445c.668,1.539,1.06,2.505,1.5,3.449q4.853,10.363,9.735,20.714c.4.838.421,2.192,1.524,2.265.887.059,1.262-1.132,1.784-1.827,5.735-7.648,2.629-6.446,12.558-5.232.71.087,1.544.511,2.083-.1.593-.675-.1-1.373-.4-1.993q-4.9-10.343-9.844-20.662c-1.678-3.5-6.084-4.08-8.333-.855C1173.669,207.944,1170.6,209.79,1165.6,208.536Z"/><path class="a" d="M1195.084,179.457c.864,11.857-9.237,22.671-22.07,23.628-11.651.868-23.1-9.294-23.974-21.272a23.063,23.063,0,1,1,46.045-2.356Zm-23.251,18.3a17.8,17.8,0,1,0-17.756-18.143A17.706,17.706,0,0,0,1171.833,197.758Z" transform="translate(-10.712 -8.511)"/></g></svg>