<svg xmlns="http://www.w3.org/2000/svg" width="138.879" height="121.633" viewBox="0 0 138.879 121.633"><defs><style>.a{fill:#ffa85d;}</style></defs><g transform="translate(-736.817 -610.749)"><path class="a" d="M736.817,653.146v-6.363c2.01-11.491,7.944-20.589,17.217-27.477,14.6-10.843,33.431-12.212,46.983,1.953,2.2,2.3,3.67,1.076,5.242-.587,8.113-8.594,18.217-10.756,29.6-9.659,18.46,1.78,35.137,20.734,38.775,35.25,2.736,10.922.211,20.4-7.8,28.362-1.777,1.767-3.564,3.528-5.417,5.215a2.832,2.832,0,0,0-.794,3.776c3.059,6.978-.327,13.859-7.776,16.019a3.123,3.123,0,0,0-2.575,2.336c-1.49,5.5-5.45,8.258-10.852,8.977a3.871,3.871,0,0,0-3.5,2.76,11.491,11.491,0,0,1-15.647,5.993c-1.692-.783-2.354-.352-3.55.9-4.106,4.3-7.875,9.027-13.357,11.782H797c-4.222-2.093-7.658-4.834-8.355-9.911-.2-1.477-1.449-1.3-2.484-1.367-5.089-.322-8.415-3.231-10.3-7.643a4.76,4.76,0,0,0-4.056-3.356,11.445,11.445,0,0,1-9.581-8.524c-.6-2.027-1.359-2.931-3.546-3.365-8.252-1.641-12.334-11.222-7.293-17.352,2.063-2.509,1.583-3.762-.561-5.534C743.749,669.478,738.317,662.54,736.817,653.146Zm41.023-36.375a30.16,30.16,0,0,0-14.566,3.492,38.336,38.336,0,0,0-16.93,16.089c-5.789,10.45-5.734,22.668,5.978,32.7,5.718,4.9,5.525,5.124,10.819.041,6.142-5.9,14.521-4.775,18.693,2.7,1.071,1.92,1.691,1.9,3.331.753a10.542,10.542,0,0,1,12.678.217c4.354,3.24,5.99,7.511,4.418,12.385-.561,1.738-.285,2.468,1.317,3.369,5.853,3.292,7.462,6.74,6.393,13.342a1.905,1.905,0,0,0,1.371,2.409,13.935,13.935,0,0,1,6.024,5.242,20.547,20.547,0,0,0,4.276,4.283,5.888,5.888,0,0,0,7.881-.547c1.924-1.983,1.936-3.938-.272-6.663-3.894-4.805-8.636-8.8-12.939-13.21-.606-.621-1.257-1.2-1.836-1.843-1.159-1.287-1.6-2.731-.3-4.124s2.783-1.066,4.123.047c.813.676,1.556,1.439,2.31,2.184,4.451,4.412,8.878,8.846,13.347,13.238,2.939,2.887,6.554,3.017,9.2.408,2.437-2.405,2.187-4.6-1.083-7.927-4.324-4.4-8.729-8.721-13.083-13.092a27.142,27.142,0,0,1-2.306-2.584c-.989-1.291-1.184-2.684.106-3.894s2.633-.986,3.886.106c.653.569,1.257,1.2,1.869,1.809,4.766,4.778,9.493,9.595,14.307,14.323,2.583,2.537,5.234,2.672,7.391.6a5.534,5.534,0,0,0,.055-8c-1.56-1.707-3.189-3.354-4.816-5q-13.327-13.462-26.665-26.913c-1.375-1.39-2.5-3.009-.747-4.75s3.329-.67,4.72.772c.871.9,1.763,1.781,2.646,2.671,7.947,8,15.934,15.97,23.811,24.041,1.669,1.711,2.87,1.793,4.494.054,1.839-1.97,3.933-3.7,5.8-5.64a21.92,21.92,0,0,0,6.338-17.07c-.778-15.558-17.853-33.775-33.729-35.967-8.58-1.185-16.743-.371-23.383,5.6-8.529,7.664-16.685,15.743-24.963,23.685-2.18,2.091-1.886,3.339,1.1,4.133,4.8,1.279,9.384.951,13.266-2.622,1.844-1.7,3.7-3.384,5.485-5.143a12.774,12.774,0,0,1,12.474-3.576c2.911.656,5.789,1.465,8.673,2.242,5.454,1.471,10.678,1.317,15.511-2.019,1.571-1.086,3.309-1.589,4.542.324,1.3,2.019.059,3.429-1.622,4.539a21.609,21.609,0,0,1-13.973,3.7c-4.859-.379-9.35-2.28-14.08-3.2a8.224,8.224,0,0,0-7.91,2.344c-1.919,1.9-3.847,3.8-5.922,5.518-5.51,4.566-11.779,5.535-18.468,3.265-7.381-2.506-8.607-8.122-3.051-13.527q6.735-6.555,13.593-12.982c1.169-1.1,1.555-1.93.222-3.309C792.184,620.147,785.83,616.572,777.84,616.771Zm19.145,65.386a5.713,5.713,0,0,0-9.77-4.078c-5.849,5.59-11.707,11.171-17.509,16.808-2.683,2.605-2.82,5.224-.577,7.587,2.434,2.565,5.618,2.825,8.2.4,6.03-5.678,11.954-11.468,17.928-17.2A4.739,4.739,0,0,0,796.985,682.156ZM786.62,715.434a6.325,6.325,0,0,0,4.595-2.1c3.724-3.471,7.472-6.914,11.17-10.412,2.943-2.786,3.231-5.067,1.048-7.459-2.581-2.828-6.013-3.288-8.668-.862-4.181,3.82-8.212,7.806-12.277,11.754a4.437,4.437,0,0,0-1.059,5.523A5.892,5.892,0,0,0,786.62,715.434Zm-15.746-44.309c-1.239-.135-2.622.838-3.9,2.1-3.219,3.173-6.478,6.305-9.68,9.5-2.961,2.952-3.091,5.6-.487,8.227,2.548,2.57,5.417,2.543,8.367-.266,3.552-3.381,6.991-6.881,10.5-10.309a4.76,4.76,0,0,0,1.143-5.8C775.811,672.447,774.014,671.2,770.874,671.126ZM812.958,714.1a9.4,9.4,0,0,0-4.306-4.4,4.246,4.246,0,0,0-5.068.876c-2.4,2.205-4.8,4.426-7.116,6.723-2.655,2.63-2.816,5.22-.6,7.56,2.464,2.608,5.437,2.849,8.164.426,2.582-2.294,5.005-4.766,7.46-7.2A4.828,4.828,0,0,0,812.958,714.1Z" transform="translate(0 0)"/></g></svg>