<svg xmlns="http://www.w3.org/2000/svg" width="734.974" height="609.826" viewBox="0 0 734.974 609.826"><defs><style>.a{fill:#2b2b2b;}.b{fill:#409;}</style></defs><g transform="translate(-23.33 282.494) rotate(-22)"><g transform="translate(19.294 27.135)"><g transform="translate(0 102.178)"><path class="a" d="M2.793,15.057c.129-.582.269-1.143.421-1.676.139-.476.364-1.137.525-1.72a28.787,28.787,0,0,0,.8-3.588,26,26,0,0,1,1.49-6.142A1.341,1.341,0,0,0,5.257.139a1.386,1.386,0,0,0-1.92.77A23.754,23.754,0,0,0,2.258,4.3c-.276,1.139-.506,2.273-.714,3.4S1.118,9.933.857,11.024c-.129.546-.273,1.065-.432,1.69L.04,14.445a1.349,1.349,0,0,0,1.077,1.668A1.351,1.351,0,0,0,2.793,15.057Z" transform="translate(0 0)"/></g><g transform="translate(8.3 79.674)"><path class="a" d="M2.8,14.735c.524-1.091,1.077-2.174,1.581-3.282A32.186,32.186,0,0,0,5.75,8.074c.337-1.016.685-2.059,1.058-3.092.38-1.011.8-1.995,1.263-2.932A1.361,1.361,0,0,0,7.362.176,1.417,1.417,0,0,0,5.379.79C4.871,1.825,4.39,2.9,3.966,3.958q-.6,1.586-1.21,3.179c-.4,1.065-.812,2.131-1.242,3.191S.636,12.439.146,13.474A1.471,1.471,0,0,0,2.8,14.735Z" transform="translate(0 0)"/></g><g transform="translate(19.189 58.557)"><path class="a" d="M2.774,13.825,3.711,12.3l.98-1.5c.655-1,1.25-2.032,1.841-3.067.508-.917,1.034-1.862,1.606-2.778.59-.9,1.211-1.786,1.866-2.606A1.357,1.357,0,0,0,9.689.365a1.439,1.439,0,0,0-2.083.17c-.716.9-1.394,1.833-2.051,2.782-.63.971-1.238,1.958-1.841,2.948S2.562,8.281,1.97,9.277l-1.754,3C-.76,13.894,1.828,15.385,2.774,13.825Z" transform="translate(0 0)"/></g><g transform="translate(33.872 39.949)"><path class="a" d="M2.634,12.819q1.182-1.35,2.406-2.672c.811-.884,1.575-1.808,2.308-2.755C7.989,6.556,8.659,5.7,9.355,4.874a31.157,31.157,0,0,1,2.215-2.33C12.914,1.281,10.785-.893,9.419.393,8.588,1.182,7.78,2,7.011,2.854S5.5,4.6,4.76,5.481L2.574,8.172c-.742.884-1.46,1.79-2.222,2.658C-.881,12.243,1.423,14.2,2.634,12.819Z" transform="translate(0 0)"/></g><g transform="translate(51.213 23.93)"><path class="a" d="M2.512,11.35l1.341-1.2.672-.6.663-.569c.436-.385.872-.771,1.318-1.149s.866-.785,1.3-1.178c.749-.713,1.565-1.406,2.405-2.069a25.648,25.648,0,0,1,2.64-1.794A1.36,1.36,0,0,0,13.249.8,1.459,1.459,0,0,0,11.227.207c-1,.579-1.958,1.23-2.9,1.913L6.932,3.187,5.578,4.316c-.888.775-1.763,1.565-2.609,2.391C2.1,7.519,1.319,8.331.456,9.1-.926,10.365,1.148,12.593,2.512,11.35Z" transform="translate(0 0)"/></g><g transform="translate(71.487 10.365)"><path class="a" d="M2.267,11.012c.518-.324,1.039-.651,1.557-.989s1.038-.668,1.544-1.028a22.883,22.883,0,0,0,2.9-2.332L9.445,5.536A15.4,15.4,0,0,1,10.6,4.517l.614-.477c.212-.148.429-.289.644-.43A12.5,12.5,0,0,1,13.2,2.849a1.38,1.38,0,0,0,.546-1.94A1.443,1.443,0,0,0,11.749.165a17.423,17.423,0,0,0-1.577.887c-.52.312-1.012.671-1.5,1.034s-.944.773-1.411,1.162L6.014,4.358c-.844.728-1.7,1.452-2.6,2.133S1.6,7.832.635,8.435C-.915,9.411.663,12.021,2.267,11.012Z" transform="translate(0 0)"/></g><g transform="translate(92.986 1.702)"><path class="a" d="M1.916,7.992c1.151-.4,2.321-.782,3.479-1.235.577-.22,1.156-.476,1.715-.727.535-.241,1.057-.511,1.584-.772a30.729,30.729,0,0,1,2.878-1.317,21.445,21.445,0,0,1,3.017-.954c1.762-.38,1.105-3.36-.779-2.948a28.963,28.963,0,0,0-3.365,1.012c-1.106.394-2.186.865-3.256,1.35l-1.581.754c-.505.24-1.007.488-1.526.709C3.056,4.324,2,4.734.921,5.109-.83,5.712.149,8.6,1.916,7.992Z" transform="translate(0 0)"/></g><g transform="translate(116.749 0)"><path class="a" d="M1.492,3.431C2.662,3.362,3.819,3.339,5,3.342s2.365-.024,3.551-.1c1.041-.076,2.119-.116,3.2-.107a27.006,27.006,0,0,1,3.2.2c1.828.235,2.143-2.8.28-3.037A46.253,46.253,0,0,0,8.3.022C7.137.052,5.971.106,4.8.172S2.458.316,1.29.388C-.625.538-.282,3.57,1.492,3.431Z" transform="translate(0 0)"/></g><g transform="translate(141.378 1.908)"><path class="a" d="M1.26,3.044c1.213.112,2.436.235,3.661.314.614.036,1.23.058,1.843.067.575.019,1.147,0,1.728,0a23.381,23.381,0,0,1,6.241.711c1.742.483,2.541-2.461.688-2.971A28.829,28.829,0,0,0,11.968.482C11.384.4,10.791.35,10.2.292,9.608.253,9.013.219,8.418.2L4.942.18C3.808.162,2.672.11,1.538.007-.3-.166-.613,2.867,1.26,3.044Z" transform="translate(0 0)"/></g><g transform="translate(165.444 6.746)"><path class="a" d="M.886,2.954C2,3.365,3.1,3.825,4.213,4.264q.829.337,1.667.646c.545.209,1.152.405,1.658.576A18.781,18.781,0,0,1,12.99,8.418c1.471,1.125,3.248-1.353,1.765-2.486A24.493,24.493,0,0,0,8.514,2.407c-1.1-.4-2.192-.774-3.291-1.153S3.031.5,1.944.094C.169-.553-.825,2.33.886,2.954Z" transform="translate(0 0)"/></g><g transform="translate(187.057 18.518)"><path class="a" d="M.771,2.889C2.956,3.962,5.065,5.07,7.183,6.009A21.935,21.935,0,0,1,9.942,7.436a14.359,14.359,0,0,1,2.439,1.879,1.386,1.386,0,0,0,2.009-.124,1.44,1.44,0,0,0,.041-2.133A20.065,20.065,0,0,0,11.587,4.8a30.409,30.409,0,0,0-3.13-1.759C6.326,2,4.16,1.154,2.112.15.462-.664-.919,2.055.771,2.889Z" transform="translate(0 0)"/></g><g transform="translate(206.043 33.722)"><path class="a" d="M.324,2.45C1.852,4.288,3.268,6.241,4.936,7.971A41.338,41.338,0,0,1,9.11,12.887c1.059,1.523,3.506-.3,2.442-1.827C8.942,7.318,5.617,4.05,2.669.5,1.463-.94-.853,1.044.324,2.45Z" transform="translate(0 0)"/></g><g transform="translate(220.825 53.535)"><path class="a" d="M.229,2.283c1.289,2,2.427,4.1,3.8,6.042.613.85,1.2,1.75,1.762,2.67a25.4,25.4,0,0,1,1.484,2.83,1.36,1.36,0,0,0,1.928.622,1.462,1.462,0,0,0,.821-1.944c-.466-1.056-1-2.086-1.565-3.1s-1.18-2-1.815-2.975-1.28-1.942-1.931-2.9S3.415,1.606,2.792.63C1.757-.95-.77.759.229,2.283Z" transform="translate(0 0)"/></g><g transform="translate(231.798 75.636)"><path class="a" d="M.1,1.967A58.159,58.159,0,0,0,2.938,8.676,38.416,38.416,0,0,1,5.6,14.532c.568,1.741,3.45.74,2.86-1.059C7,9.1,4.577,5.125,2.95.878A1.416,1.416,0,0,0,1.025.122,1.4,1.4,0,0,0,.1,1.967Z" transform="translate(0 0)"/></g><g transform="translate(239.967 98.942)"><path class="a" d="M.03,1.7C.477,3.939.572,6.332,1.116,8.729c.48,2.106,1.008,4.368,1.6,6.522a1.348,1.348,0,0,0,1.829.9,1.477,1.477,0,0,0,1.088-1.787c-.542-2.018-.982-4.143-1.381-6.377S3.486,3.44,3.021,1.105A1.4,1.4,0,0,0,1.23.047,1.421,1.421,0,0,0,.03,1.7Z" transform="translate(0 0)"/></g><g transform="translate(244.275 123.209)"><path class="a" d="M0,1.4C.038,2.629.006,3.866.086,5.089A27.985,27.985,0,0,0,.464,8.735c.183,1.056.366,2.14.529,3.222s.279,2.169.343,3.228c.107,1.863,3.143,1.571,3.037-.275-.132-2.263-.447-4.508-.737-6.761-.16-1.127-.274-2.253-.392-3.385S3.083,2.5,3.051,1.37a1.37,1.37,0,0,0-.5-1.057A1.6,1.6,0,0,0,1.487,0,1.772,1.772,0,0,0,.455.381,1.2,1.2,0,0,0,0,1.4Z" transform="translate(0 0)"/></g><g transform="translate(246.091 147.898)"><path class="a" d="M.006,1.514C.08,2.707.155,3.906.23,5.1.289,6.3.419,7.487.568,8.666c.139,1.037.3,2.109.346,3.18A21.98,21.98,0,0,1,.93,15.034c-.131,1.813,2.913,2,3.048.1a30.547,30.547,0,0,0,.034-3.481c-.021-1.164-.158-2.317-.252-3.475s-.262-2.3-.376-3.457c-.13-1.149-.259-2.295-.339-3.446C2.889-.587-.149-.326.006,1.514Z" transform="translate(0 0)"/></g><g transform="translate(244.607 172.493)"><path class="a" d="M.755,1.1Q.583,2.019.413,2.938C.3,3.566.217,4.2.142,4.825a21.728,21.728,0,0,0-.1,3.747C.181,10.743.391,12.99.314,15.1c-.074,1.84,2.976,1.889,3.049.011.042-1.143.027-2.279,0-3.407s-.082-2.251-.1-3.366S3.252,6.106,3.312,5c.052-.548.084-1.1.166-1.648s.166-1.072.27-1.664C4.082-.2,1.065-.658.755,1.1Z" transform="translate(0 0)"/></g><g transform="translate(241.538 197.134)"><path class="a" d="M2.025,1.13A66.779,66.779,0,0,0,.863,8.282,46.572,46.572,0,0,1,.036,14.7c-.4,1.814,2.6,2.378,3,.561.975-4.446,1.16-9.081,1.992-13.59A1.4,1.4,0,0,0,3.773.028,1.416,1.416,0,0,0,2.025,1.13Z" transform="translate(0 0)"/></g><g transform="translate(236.937 221.467)"><path class="a" d="M2.131,1.115A66,66,0,0,0,.92,8.27a44.555,44.555,0,0,1-.88,6.406c-.42,1.806,2.57,2.4,2.993.589,1.029-4.441,1.224-9.075,2.093-13.57C5.469-.132,2.475-.714,2.131,1.115Z" transform="translate(0 0)"/></g><g transform="translate(231.341 245.736)"><path class="a" d="M2.9,1.072c-.254,1.174-.559,2.339-.826,3.512s-.524,2.343-.68,3.535C1.256,9.167,1.07,10.233.865,11.3a27.966,27.966,0,0,1-.8,3.111A1.364,1.364,0,0,0,1.1,16.154,1.456,1.456,0,0,0,3,15.247c.342-1.094.658-2.2.9-3.327s.49-2.252.688-3.389c.418-2.27.784-4.55,1.282-6.8C6.279-.089,3.3-.732,2.9,1.072Z" transform="translate(0 0)"/></g><g transform="translate(223.125 269.491)"><path class="a" d="M4.445.894Q3.8,2.568,3.152,4.248A30.964,30.964,0,0,0,2.024,7.719,46.194,46.194,0,0,1,.112,13.9C-.6,15.611,2.254,16.7,2.97,14.97c.87-2.112,1.53-4.3,2.19-6.486C5.489,7.39,5.82,6.3,6.177,5.218S6.9,3.02,7.309,1.941A1.409,1.409,0,0,0,6.343.106,1.409,1.409,0,0,0,4.445.894Z" transform="translate(0 0)"/></g><g transform="translate(212.265 292.525)"><path class="a" d="M6.38.782C5.887,1.858,5.334,2.9,4.8,3.948S3.707,6.063,3.235,7.157A35,35,0,0,1,.242,12.826C-.8,14.35,1.771,16,2.825,14.447A48.613,48.613,0,0,0,6.21,8.41c1.012-2.082,1.964-4.23,2.936-6.344A1.4,1.4,0,0,0,8.338.159,1.42,1.42,0,0,0,6.38.782Z" transform="translate(0 0)"/></g><g transform="translate(198.684 313.681)"><path class="a" d="M7.393.619A61.241,61.241,0,0,0,3.565,6.792,36.788,36.788,0,0,1,.278,12.31a1.365,1.365,0,0,0,.4,1.987,1.457,1.457,0,0,0,2.094-.236A52.254,52.254,0,0,0,6.459,8.22C7.586,6.2,8.673,4.211,9.94,2.3,10.961.748,8.419-.937,7.393.619Z" transform="translate(0 0)"/></g><g transform="translate(181.714 333.739)"><path class="a" d="M10.134.445c-.39.441-.8.863-1.214,1.285s-.827.84-1.244,1.256L6.434,4.243c-.406.427-.81.855-1.209,1.29-.686.781-1.439,1.537-2.217,2.279A28.738,28.738,0,0,1,.546,9.873c-1.486,1.083.367,3.505,1.889,2.4.925-.682,1.812-1.414,2.678-2.174.871-.781,1.72-1.586,2.537-2.429s1.619-1.695,2.4-2.567c.4-.43.787-.865,1.173-1.3l1.172-1.3a1.392,1.392,0,0,0-.2-2.061A1.426,1.426,0,0,0,10.134.445Z" transform="translate(0 0)"/></g><g transform="translate(161.095 349.394)"><path class="a" d="M12.05.241c-1.983,1.322-4.066,2.5-5.98,3.92-.841.626-1.723,1.248-2.634,1.824l-.7.436c-.25.157-.5.308-.744.472-.492.316-.952.646-1.411.959A1.338,1.338,0,0,0,.37,9.886,1.492,1.492,0,0,0,2.4,10.3c.438-.3.866-.593,1.295-.857.213-.141.429-.256.643-.391l.748-.44c.995-.591,1.967-1.226,2.929-1.877,1.925-1.3,3.8-2.673,5.725-3.957C15.305,1.72,13.562-.782,12.05.241Z" transform="translate(0 0)"/></g><g transform="translate(138.482 361.995)"><path class="a" d="M13.988.064c-2.219.672-4.625,1.09-6.937,2.029l-1.54.645L4,3.394A21.069,21.069,0,0,1,1,4.412,1.369,1.369,0,0,0,.061,6.2,1.454,1.454,0,0,0,1.844,7.343a28.746,28.746,0,0,0,3.339-1.08l1.561-.616q.764-.3,1.553-.575c2.106-.748,4.321-1.409,6.575-2.09A1.386,1.386,0,0,0,15.747,1.1,1.427,1.427,0,0,0,13.988.064Z" transform="translate(0 0)"/></g><g transform="translate(113.892 367.868)"><path class="a" d="M14.948.006C12.607.222,10.231.18,7.868.44,6.82.554,5.72.654,4.637.72A29.024,29.024,0,0,1,1.423.757C-.4.653-.527,3.7,1.369,3.807c1.153.06,2.3.049,3.442.013s2.264-.1,3.433-.174,2.325-.174,3.487-.276l3.489-.324a1.393,1.393,0,0,0,1.246-1.658A1.423,1.423,0,0,0,14.948.006Z" transform="translate(0 0)"/></g><g transform="translate(89.817 363.069)"><path class="a" d="M14.935,3.908q-.839-.2-1.669-.453c-.55-.167-1.1-.338-1.678-.546A34.444,34.444,0,0,0,8.134,1.889,46,46,0,0,1,1.946.1,1.39,1.39,0,0,0,.14.987,1.438,1.438,0,0,0,.921,2.974c2.132.825,4.343,1.463,6.56,2.082l3.323.938c1.1.327,2.283.6,3.424.882a1.385,1.385,0,0,0,1.707-1.188A1.431,1.431,0,0,0,14.935,3.908Z" transform="translate(0 0)"/></g><g transform="translate(68.14 351.236)"><path class="a" d="M14.821,5.884l-.816-.521c-.3-.177-.6-.359-.9-.51a17.184,17.184,0,0,0-1.818-.823,27.875,27.875,0,0,0-3.512-1.07A14.468,14.468,0,0,1,4.92,2.019,11.032,11.032,0,0,1,2.438.335a1.383,1.383,0,0,0-2,.234A1.441,1.441,0,0,0,.5,2.693,16.7,16.7,0,0,0,1.932,3.82c.239.177.515.355.8.53s.569.318.854.475A20.226,20.226,0,0,0,7.046,6.106c1.129.322,2.224.6,3.25.942a13.108,13.108,0,0,1,1.473.593c.24.105.455.237.682.359l.7.434a1.439,1.439,0,0,0,1.994-.477A1.392,1.392,0,0,0,14.821,5.884Z" transform="translate(0 0)"/></g><g transform="translate(51.34 333.035)"><path class="a" d="M11.923,10.5c-.847-.888-1.625-1.754-2.437-2.638S7.866,6.112,7,5.293A34.12,34.12,0,0,1,2.691.554,1.362,1.362,0,0,0,.673.352,1.46,1.46,0,0,0,.28,2.422,47.6,47.6,0,0,0,4.809,7.667c.81.831,1.637,1.648,2.459,2.466s1.66,1.642,2.441,2.462C10.966,13.932,13.216,11.873,11.923,10.5Z" transform="translate(0 0)"/></g><g transform="translate(38.67 311.838)"><path class="a" d="M9.44,12.572C8.148,10.6,7.054,8.51,5.775,6.538A24.391,24.391,0,0,1,2.945.909,1.373,1.373,0,0,0,1.1.093,1.45,1.45,0,0,0,.079,1.953,32.511,32.511,0,0,0,3.087,8.326c1.2,2.024,2.521,3.964,3.8,5.912C7.921,15.813,10.444,14.1,9.44,12.572Z" transform="translate(0 0)"/></g><g transform="translate(34.317 287.551)"><path class="a" d="M6.093,14.738a23.514,23.514,0,0,0-.407-3.89A18.75,18.75,0,0,0,4.509,7.242,20.163,20.163,0,0,1,3.44,4.348,9.941,9.941,0,0,1,3.16,2.856a11.251,11.251,0,0,1-.112-1.529A1.384,1.384,0,0,0,1.531,0,1.44,1.44,0,0,0,0,1.479l.032.9c.022.3.058.6.09.906A14.169,14.169,0,0,0,.435,5.133a27.121,27.121,0,0,0,1.124,3.42A28.317,28.317,0,0,1,2.616,11.66a15.987,15.987,0,0,1,.43,3.21A1.423,1.423,0,0,0,4.616,16.2,1.4,1.4,0,0,0,6.093,14.738Z" transform="translate(0 0)"/></g><g transform="translate(35.661 262.951)"><path class="a" d="M3.034,15.277a60.675,60.675,0,0,0,.985-7.206c.045-1.071.059-2.22.134-3.248A19.961,19.961,0,0,1,4.619,1.7,1.366,1.366,0,0,0,3.461.045,1.456,1.456,0,0,0,1.629,1.1a26.755,26.755,0,0,0-.57,3.484l-.08.885-.06.838L.793,7.989C.612,10.241.373,12.53.02,14.81a1.4,1.4,0,0,0,1.3,1.61A1.414,1.414,0,0,0,3.034,15.277Z" transform="translate(0 0)"/></g><g transform="translate(40.652 239.193)"><path class="a" d="M2.979,15.1A61.036,61.036,0,0,0,5.028,8.127c.2-1.067.412-2.12.664-3.164a24.44,24.44,0,0,1,.937-3.057A1.369,1.369,0,0,0,5.69.107,1.452,1.452,0,0,0,3.745.914a33.04,33.04,0,0,0-1.064,3.3L2.243,5.9,1.852,7.552c-.527,2.21-1.084,4.438-1.78,6.63C-.49,15.965,2.424,16.864,2.979,15.1Z" transform="translate(0 0)"/></g><g transform="translate(48.795 216.513)"><path class="a" d="M2.926,14.6q.725-1.638,1.487-3.269c.493-1.091.966-2.19,1.376-3.314.348-.994.735-2.005,1.17-3A25.611,25.611,0,0,1,8.385,2.145C9.3.551,6.631-.919,5.693.711c-.578.991-1.1,2.019-1.579,3.066s-.94,2.108-1.376,3.18S1.882,9.107,1.45,10.18.6,12.33.128,13.385a1.4,1.4,0,0,0,.849,1.886A1.419,1.419,0,0,0,2.926,14.6Z" transform="translate(0 0)"/></g><g transform="translate(60.245 195.486)"><path class="a" d="M2.81,13.928,4.746,10.9q.976-1.507,1.831-3.083A43.912,43.912,0,0,1,9.944,2.3C11.049.81,8.537-.921,7.432.573c-.676.913-1.311,1.858-1.926,2.816S4.3,5.339,3.708,6.335,2.562,8.348,1.974,9.344.828,11.353.212,12.329C-.758,13.936,1.861,15.5,2.81,13.928Z" transform="translate(0 0)"/></g><g transform="translate(74.148 175.435)"><path class="a" d="M2.75,13.6l2.126-2.917c.7-.978,1.383-1.964,2-3a36.753,36.753,0,0,1,3.656-5.28C11.738,1.03,9.4-.926,8.154.494A52.07,52.07,0,0,0,4.079,6.071C2.81,8,1.6,9.967.263,11.837-.812,13.362,1.683,15.116,2.75,13.6Z" transform="translate(0 0)"/></g><g transform="translate(89.668 157.672)"><path class="a" d="M2.589,12.336l1.257-1.26,1.3-1.252c.851-.848,1.7-1.7,2.474-2.613a37.615,37.615,0,0,1,4.5-4.6c1.417-1.18-.586-3.481-2.027-2.279q-1.322,1.1-2.545,2.318c-.822.8-1.621,1.636-2.4,2.485S3.572,6.835,2.792,7.687L1.6,8.946q-.593.641-1.2,1.262a1.4,1.4,0,0,0,.129,2.067A1.424,1.424,0,0,0,2.589,12.336Z" transform="translate(0 0)"/></g><g transform="translate(108.047 142.217)"><path class="a" d="M2.428,11.37,5.262,9.146c.95-.736,1.871-1.5,2.744-2.328a39.164,39.164,0,0,1,4.965-4.091C14.515,1.713,12.765-.786,11.2.245c-.952.636-1.87,1.325-2.775,2.032S6.644,3.741,5.766,4.488L3.157,6.766Q1.86,7.913.514,9C-.937,10.18,1,12.535,2.428,11.37Z" transform="translate(0 0)"/></g><g transform="translate(128.083 128.771)"><path class="a" d="M2.29,10.417C4.3,9.1,6.4,7.917,8.3,6.437A40.668,40.668,0,0,1,13.63,2.809c1.625-.873.1-3.518-1.547-2.629A58.943,58.943,0,0,0,6.3,3.906C4.423,5.234,2.554,6.6.628,7.859-.942,8.877.743,11.42,2.29,10.417Z" transform="translate(0 0)"/></g><g transform="translate(149.405 117.86)"><path class="a" d="M2.132,8.871C3.2,8.342,4.275,7.812,5.354,7.306c.538-.257,1.071-.526,1.6-.8s1.056-.546,1.57-.848c.9-.542,1.858-1.025,2.821-1.509A27.651,27.651,0,0,1,14.3,2.939C16.036,2.4,15.066-.5,13.247.075c-1.093.378-2.179.792-3.236,1.272S7.906,2.329,6.882,2.88c-1.034.53-2.051,1.093-3.069,1.647S1.783,5.643.745,6.154C-.923,7.021.507,9.716,2.132,8.871Z" transform="translate(0 0)"/></g><g transform="translate(172.497 111.002)"><path class="a" d="M1.736,7.216A41.464,41.464,0,0,0,8.812,5.134a38.858,38.858,0,0,1,6.066-2.148c1.771-.4,1.07-3.368-.8-2.945C9.563,1.11,5.459,3.255,1.071,4.238A1.418,1.418,0,0,0,.052,6.053,1.4,1.4,0,0,0,1.736,7.216Z" transform="translate(0 0)"/></g><g transform="translate(196.523 106.802)"><path class="a" d="M1.627,5.69A62.629,62.629,0,0,0,8.783,4.428a52.211,52.211,0,0,1,6.339-1.407C16.973,2.76,16.429-.242,14.6.016,10.123.637,5.7,1.99,1.172,2.673-.663,2.95-.215,5.968,1.627,5.69Z" transform="translate(0 0)"/></g><g transform="translate(220.967 104.76)"><path class="a" d="M1.528,3.953C2.7,3.834,3.9,3.8,5.082,3.729s2.378-.131,3.56-.3c1.042-.12,2.116-.25,3.2-.309A28.472,28.472,0,0,1,15.049,3.1c1.842.1,1.935-2.945.062-3.05C13.97-.022,12.816,0,11.665.023,10.512.063,9.355.144,8.2.234c-1.158.118-2.313.2-3.469.338L1.261.914C-.629,1.08-.275,4.111,1.528,3.953Z" transform="translate(0 0)"/></g><g transform="translate(245.668 105.582)"><path class="a" d="M1.327,3.189A60.131,60.131,0,0,0,8.6,3.323c1.063-.075,2.162-.164,3.257-.207s2.193-.079,3.259-.034a1.363,1.363,0,0,0,1.395-1.465,1.46,1.46,0,0,0-1.4-1.585C13.986-.019,12.864,0,11.732.014S9.465.075,8.324.105C6.046.181,3.751.241,1.462.141-.394.059-.531,3.107,1.327,3.189Z" transform="translate(0 0)"/></g><g transform="translate(270.35 106.971)"><path class="a" d="M1.2,3.038a57.59,57.59,0,0,0,7.243.775l1.636.006.825.009c.25.007.5.008.754.027a11.443,11.443,0,0,1,2.96.593,1.381,1.381,0,0,0,1.761-.976A1.443,1.443,0,0,0,15.5,1.528,15.893,15.893,0,0,0,11.869.756C11.217.7,10.675.683,10.115.661L8.424.585C6.163.472,3.877.313,1.594.013-.264-.224-.628,2.8,1.2,3.038Z" transform="translate(0 0)"/></g><g transform="translate(294.484 111.928)"><path class="a" d="M1.193,3.036c1.2.171,2.341.359,3.411.607.536.123,1.051.265,1.557.415.256.083.485.153.76.248s.556.2.837.287c.993.307,2,.68,2.99,1.091A24.828,24.828,0,0,1,13.6,7.1c1.563.941,3.088-1.7,1.457-2.681a33.418,33.418,0,0,0-3.1-1.589l-1.606-.695L8.714,1.507A17.918,17.918,0,0,0,6.958.916C6.348.743,5.738.622,5.135.51,3.931.3,2.754.176,1.623.016a1.422,1.422,0,0,0-1.6,1.3A1.4,1.4,0,0,0,1.193,3.036Z" transform="translate(0 0)"/></g><g transform="translate(316.502 122.379)"><path class="a" d="M.593,2.774c.989.662,1.943,1.385,2.921,2.071Q4.96,5.9,6.486,6.84c.9.54,1.813,1.119,2.695,1.742a27.023,27.023,0,0,1,2.52,1.98C13.056,11.8,15.058,9.5,13.661,8.226c-.863-.761-1.753-1.495-2.687-2.177S9.091,4.7,8.129,4.059s-1.943-1.267-2.915-1.9S3.273.9,2.31.253C.752-.807-.917,1.747.593,2.774Z" transform="translate(0 0)"/></g><g transform="translate(335.408 138.174)"><path class="a" d="M.328,2.488c.759.864,1.452,1.8,2.145,2.736s1.381,1.9,2.141,2.811a46.463,46.463,0,0,1,3.772,5.258c1,1.615,3.5-.126,2.555-1.668C9.783,9.712,8.49,7.829,7.09,5.964c-.7-.933-1.427-1.855-2.169-2.769S3.414,1.377,2.631.487A1.382,1.382,0,0,0,.552.46,1.435,1.435,0,0,0,.328,2.488Z" transform="translate(0 0)"/></g><g transform="translate(349.339 158.573)"><path class="a" d="M.2,2.241c.6,1,1.151,2.038,1.685,3.072l.8,1.55.409.779c.153.279.3.562.471.827C4.72,10.36,6.018,12.2,6.953,14.082a1.368,1.368,0,0,0,1.956.528,1.457,1.457,0,0,0,.725-1.983C8.6,10.561,7.354,8.681,6.307,6.765L5.492,5.242Q5.068,4.461,4.621,3.7C4.03,2.677,3.42,1.673,2.815.669A1.394,1.394,0,0,0,.779.274,1.422,1.422,0,0,0,.2,2.241Z" transform="translate(0 0)"/></g><g transform="translate(359.033 181.106)"><path class="a" d="M.068,1.835A10.044,10.044,0,0,0,.885,3.876c.167.322.379.652.559.929s.364.534.555.791A34.114,34.114,0,0,0,4.312,8.355,9.131,9.131,0,0,1,5.9,10.738a11.99,11.99,0,0,1,.525,1.421c.165.526.309,1.052.448,1.573.507,1.84,3.4.851,2.921-.882-.141-.536-.283-1.071-.44-1.6a15.162,15.162,0,0,0-.624-1.784A12.911,12.911,0,0,0,6.7,6.183c-.791-.95-1.561-1.743-2.241-2.6-.173-.212-.336-.432-.5-.647a6.826,6.826,0,0,1-.395-.607A5.608,5.608,0,0,1,3,.992,1.5,1.5,0,0,0,1.227.025,1.36,1.36,0,0,0,.068,1.835Z" transform="translate(0 0)"/></g><g transform="translate(369.331 203.438)"><path class="a" d="M.143,2.077A43.011,43.011,0,0,0,3.628,8.564c.617.88,1.248,1.783,1.853,2.7a28.8,28.8,0,0,1,1.659,2.761,1.372,1.372,0,0,0,1.968.494,1.451,1.451,0,0,0,.69-1.991Q9.4,11.757,8.96,11c-.286-.487-.583-.968-.883-1.447L6.259,6.69A53.49,53.49,0,0,1,2.908.787,1.422,1.422,0,0,0,.944.159,1.4,1.4,0,0,0,.143,2.077Z" transform="translate(0 0)"/></g><g transform="translate(380.861 225.335)"><path class="a" d="M.147,2.1A64.235,64.235,0,0,0,3.432,8.572c.563.9,1.147,1.837,1.7,2.785s1.09,1.9,1.546,2.87a1.353,1.353,0,0,0,1.967.534A1.47,1.47,0,0,0,9.374,12.8c-.481-1.017-1.021-2-1.556-3L6.15,6.829C5.022,4.844,3.892,2.843,2.895.774,2.083-.906-.659.432.147,2.1Z" transform="translate(0 0)"/></g><g transform="translate(392.614 247.114)"><path class="a" d="M.256,2.336,1.343,3.852l.545.759.586.732c.392.485.793.967,1.2,1.433.4.443.808.874,1.234,1.29.757.724,1.5,1.518,2.222,2.319a30.657,30.657,0,0,1,2.015,2.508c1.069,1.515,3.5-.324,2.428-1.848-.67-.929-1.366-1.834-2.114-2.713S7.952,6.586,7.15,5.742L5.97,4.475,4.845,3.232c-.381-.411-.729-.851-1.072-1.294S3.086,1.048,2.759.592C1.753-.912-.814.738.256,2.336Z" transform="translate(0 0)"/></g><g transform="translate(407.759 266.704)"><path class="a" d="M.3,2.413c.755.958,1.5,1.931,2.284,2.877A27.085,27.085,0,0,0,5.111,7.972L7.544,10.2l1.2,1.143c.4.375.8.757,1.172,1.145a1.328,1.328,0,0,0,2.031-.12,1.5,1.5,0,0,0,.074-2.088q-.575-.6-1.176-1.168L9.665,7.932c-.808-.766-1.6-1.568-2.4-2.36S5.693,3.948,4.914,3.125c-.759-.846-1.507-1.7-2.21-2.6C1.572-.926-.85.928.3,2.413Z" transform="translate(0 0)"/></g><g transform="translate(425.695 283.674)"><path class="a" d="M.705,2.831l.814.488.764.444c.509.287,1.006.6,1.51.9C4.8,5.266,5.8,5.878,6.837,6.44A28.584,28.584,0,0,1,12.1,10a1.367,1.367,0,0,0,2.012-.25,1.457,1.457,0,0,0-.076-2.109,32.235,32.235,0,0,0-2.744-2.148c-.953-.673-1.943-1.3-2.948-1.906S6.315,2.407,5.279,1.853C4.267,1.289,3.151.762,2.238.193a1.444,1.444,0,0,0-1.973.6A1.388,1.388,0,0,0,.705,2.831Z" transform="translate(0 0)"/></g><g transform="translate(445.121 298.787)"><path class="a" d="M.416,2.581c.2.2.45.431.69.654l.72.671c.512.4,1,.847,1.542,1.212A15.863,15.863,0,0,0,5.009,6.162,14.694,14.694,0,0,0,6.735,7c.515.217,1.046.4,1.569.61l1.585.571c1.055.371,2.1.75,3.086,1.154,1.746.71,2.759-2.168,1.068-2.858-1.038-.424-2.067-.822-3.1-1.214C9.93,4.855,8.905,4.462,7.927,4A22.219,22.219,0,0,1,5.079,2.444c-.449-.3-.881-.62-1.309-.948C3.359,1.134,2.967.812,2.551.4,1.207-.909-.9,1.3.416,2.581Z" transform="translate(0 0)"/></g><g transform="translate(467.267 309.692)"><path class="a" d="M.787,2.9A59.862,59.862,0,0,0,7.445,5.839c2.05.672,4.232,1.35,6.259,2.11A1.342,1.342,0,0,0,15.5,6.978a1.484,1.484,0,0,0-.816-1.919L8.414,2.76C6.3,1.962,4.163,1.11,2.073.138.369-.648-.882,2.135.787,2.9Z" transform="translate(0 0)"/></g><g transform="translate(490.626 317.825)"><path class="a" d="M1.121,3.025A44.331,44.331,0,0,0,8.4,4.046c2.153.053,4.417.1,6.548.321,1.885.189,2.027-2.859.221-3.043C10.744.849,6.162.881,1.7.029-.1-.323-.74,2.661,1.121,3.025Z" transform="translate(0 0)"/></g><g transform="translate(515.306 318.973)"><path class="a" d="M1.4,4.019c1.217-.015,2.439,0,3.659-.026A33.13,33.13,0,0,0,8.7,3.715c1.059-.16,2.147-.307,3.235-.425s2.178-.22,3.242-.244c1.872-.068,1.648-3.111-.19-3.045-1.128.024-2.255.1-3.384.2-1.129.087-2.26.2-3.394.321l-3.406.3C3.668.9,2.529.954,1.389.968-.453.963-.477,4.014,1.4,4.019Z" transform="translate(0 0)"/></g><g transform="translate(540.033 316.154)"><path class="a" d="M1.564,5.421c1.208-.143,2.427-.238,3.635-.4a30.423,30.423,0,0,0,3.592-.653c1.036-.27,2.105-.515,3.174-.759s2.146-.434,3.2-.582c1.857-.261,1.31-3.263-.509-3.008C13.54.17,12.425.349,11.315.571S9.087,1,7.974,1.242s-2.235.444-3.357.652-2.252.362-3.384.494A1.418,1.418,0,0,0,.01,4.05,1.406,1.406,0,0,0,1.564,5.421Z" transform="translate(0 0)"/></g><g transform="translate(564.469 310.515)"><path class="a" d="M1.74,7.018,3.53,6.624l1.783-.431a28.269,28.269,0,0,0,3.5-1.084c1-.377,2.025-.787,3.059-1.152s2.073-.711,3.1-.987c1.813-.487.881-3.392-.892-2.918-1.087.293-2.162.634-3.241.975L7.612,2.109c-1.075.368-2.156.728-3.247,1.05s-2.187.636-3.3.882C-.723,4.448-.1,7.435,1.74,7.018Z" transform="translate(0 0)"/></g><g transform="translate(588.196 301.854)"><path class="a" d="M1.948,8.571C3.092,8.152,4.242,7.734,5.383,7.3A33.751,33.751,0,0,0,8.711,5.785c.94-.517,1.909-1.037,2.891-1.522.977-.5,1.966-.97,2.957-1.365C16.291,2.175,15-.591,13.311.114c-1.047.416-2.073.885-3.1,1.369s-2.044.977-3.067,1.474S5.1,3.943,4.057,4.409,1.966,5.316.9,5.707C-.836,6.331.177,9.209,1.948,8.571Z" transform="translate(0 0)"/></g><g transform="translate(610.845 290.826)"><path class="a" d="M2.146,9.522,5.362,7.841c1.052-.558,2.1-1.132,3.115-1.781a50.743,50.743,0,0,1,5.642-3.2c1.7-.807.263-3.5-1.39-2.717C10.7,1.1,8.7,2.2,6.709,3.359L3.717,5.122c-1.006.6-1.985,1.166-2.99,1.7a1.426,1.426,0,0,0-.529,2A1.4,1.4,0,0,0,2.146,9.522Z" transform="translate(0 0)"/></g><g transform="translate(632.534 275.945)"><path class="a" d="M2.37,12.359a35.587,35.587,0,0,0,2.95-2.4A18.424,18.424,0,0,0,6.668,8.6l.322-.353L7.277,7.9l.557-.691a26.3,26.3,0,0,1,4.392-4.556A1.372,1.372,0,0,0,12.36.638,1.452,1.452,0,0,0,10.269.315a35.354,35.354,0,0,0-5,4.928l-.566.669-.544.621c-.36.412-.722.825-1.12,1.2s-.78.779-1.207,1.132S1,9.593.544,9.915A1.442,1.442,0,0,0,.321,11.96,1.388,1.388,0,0,0,2.37,12.359Z" transform="translate(0 0)"/></g><g transform="translate(651.432 259.937)"><path class="a" d="M2.459,12.382a43.529,43.529,0,0,0,5.3-5.106,45.745,45.745,0,0,1,4.436-4.712c1.391-1.257-.75-3.432-2.115-2.2C9.24,1.12,8.426,1.908,7.627,2.717S6.034,4.382,5.261,5.227a53.925,53.925,0,0,1-4.778,4.83,1.43,1.43,0,0,0-.089,2.058A1.4,1.4,0,0,0,2.459,12.382Z" transform="translate(0 0)"/></g><g transform="translate(669.113 241.281)"><path class="a" d="M2.642,13.546c.808-.928,1.633-1.849,2.4-2.816A26.51,26.51,0,0,0,7.171,7.713L8,6.308c.276-.452.553-.906.85-1.351a25.729,25.729,0,0,1,1.936-2.54C12.007,1.032,9.662-.921,8.425.488,7.669,1.353,6.957,2.27,6.278,3.22,5.946,3.7,5.61,4.2,5.3,4.674L4.376,6.09A48.962,48.962,0,0,1,.349,11.533C-.864,12.895,1.375,14.97,2.642,13.546Z" transform="translate(0 0)"/></g><g transform="translate(684.426 220.146)"><path class="a" d="M2.774,15.06A35.27,35.27,0,0,0,4.761,11.8c.147-.285.3-.569.437-.858l.378-.892a13.81,13.81,0,0,0,.608-1.837c.158-.542.245-1.119.377-1.678.113-.527.228-1.057.342-1.587s.246-1.04.384-1.552c.158-.508.331-1.009.514-1.5C8.444.2,5.581-.861,4.911.924c-.2.544-.4,1.088-.574,1.644s-.316,1.126-.463,1.693L3.461,5.907c-.123.514-.244,1.032-.417,1.539L2.8,8.216l-.288.757c-.181.511-.412,1.006-.642,1.5A22.209,22.209,0,0,1,.244,13.355a1.426,1.426,0,0,0,.464,2A1.4,1.4,0,0,0,2.774,15.06Z" transform="translate(0 0)"/></g><g transform="translate(693.725 197.146)"><path class="a" d="M2.931,14.892A61.249,61.249,0,0,0,5.582,8.123c.3-1.026.607-2.08.935-3.131.167-.524.341-1.044.526-1.556S7.4,2.407,7.6,1.909C8.3.15,5.4-.807,4.726.881c-.208.519-.4,1.044-.59,1.571S3.745,3.508,3.56,4.041Q3.017,5.648,2.469,7.263C1.746,9.423,1,11.6.115,13.714-.6,15.437,2.221,16.6,2.931,14.892Z" transform="translate(0 0)"/></g><g transform="translate(701.851 172.955)"><path class="a" d="M3.023,15.392q.16-.925.32-1.853L3.5,12.61l.093-.941c.059-.628.109-1.256.143-1.883A16.308,16.308,0,0,0,3.671,7.9c-.041-.549-.083-1.1-.126-1.664-.053-.534-.1-1.072-.137-1.611a26.81,26.81,0,0,1-.052-3.211C3.442-.428.392-.5.306,1.375q-.078,1.718,0,3.448L.392,6.543.456,8.187a29.733,29.733,0,0,1-.033,3.318c-.015.277-.018.557-.047.833l-.106.83Q.16,14,.025,14.824a1.422,1.422,0,0,0,1.21,1.654A1.4,1.4,0,0,0,3.023,15.392Z" transform="translate(0 0)"/></g><g transform="translate(702.858 148.217)"><path class="a" d="M3.185,15.172A63.4,63.4,0,0,0,3.3,7.908a54.882,54.882,0,0,1-.2-6.5C3.176-.467.125-.46.052,1.374-.008,2.5,0,3.629,0,4.765S.056,7.038.086,8.181c.071,2.284.14,4.58.05,6.87C.062,16.909,3.112,17.03,3.185,15.172Z" transform="translate(0 0)"/></g><g transform="translate(700.952 123.611)"><path class="a" d="M5.261,14.851c-.06-1.225-.167-2.457-.28-3.685a28.662,28.662,0,0,0-.617-3.642,56.274,56.274,0,0,1-1.34-6.367C2.776-.7-.229-.165.014,1.658c.3,2.235.762,4.461,1.226,6.69.2,1.106.448,2.208.6,3.328s.318,2.24.373,3.372C2.328,16.872,5.377,16.748,5.261,14.851Z" transform="translate(0 0)"/></g><g transform="translate(695.23 99.574)"><path class="a" d="M7.131,14.175c-.27-1.19-.52-2.391-.83-3.578A28.451,28.451,0,0,0,5.2,7.1c-.393-1-.816-2.022-1.185-3.058C3.616,3.014,3.268,1.972,2.96.948,2.406-.859-.467.173.065,1.913q.476,1.61,1.036,3.2c.347,1.071.752,2.127,1.107,3.2a60.765,60.765,0,0,1,1.945,6.529,1.421,1.421,0,0,0,1.79,1.028A1.4,1.4,0,0,0,7.131,14.175Z" transform="translate(0 0)"/></g><g transform="translate(685.437 76.876)"><path class="a" d="M9.161,13.034c-.52-1.1-1.028-2.273-1.546-3.327-.521-1.073-1.059-2.15-1.679-3.183A54.737,54.737,0,0,1,2.874.791C2.1-.93-.617.455.128,2.118c.908,2.051,1.96,4.067,3.053,6.091l1.656,3.043c.559,1.023,1.058,2.011,1.544,3.041C7.112,15.963,9.925,14.778,9.161,13.034Z" transform="translate(0 0)"/></g><g transform="translate(671.489 56.642)"><path class="a" d="M11.642,10.969a33.242,33.242,0,0,0-2.417-3A29.988,29.988,0,0,0,6.538,5.514a14.335,14.335,0,0,1-1.089-1c-.169-.177-.335-.358-.494-.546s-.325-.406-.486-.61A21.867,21.867,0,0,1,2.745.7C1.837-.934-.7.595.184,2.217A29.223,29.223,0,0,0,2.035,5.2,15.861,15.861,0,0,0,3.2,6.669c.421.471.866.908,1.31,1.315C5.4,8.8,6.268,9.507,7.039,10.259A21.408,21.408,0,0,1,9.175,12.75a1.425,1.425,0,0,0,2.033.263A1.4,1.4,0,0,0,11.642,10.969Z" transform="translate(0 0)"/></g></g><path class="b" d="M127.858,101.552l-29.771.331A56.389,56.389,0,0,0,92.225,89.95L72.434,60.865l12.332-3.417c2.365,2.072,4.532,3.168,5.964,2.177,1.013-.7,1.2-2.172.859-4.068l14.535-4.029c3.046,3.158,6.077,5.282,7.968,3.974,1.428-.987,1.3-3.384.393-6.291l27.526-7.628-7.587-13.17-30.676,1.061L99.9,23.813a2.522,2.522,0,0,0-3.511-.543l-5.076,3.454a2.538,2.538,0,0,0-.917,3.212l-12.21.423-3.013-4.428a2.6,2.6,0,0,0-3.607-.686L66.486,28.7a2.592,2.592,0,0,0-1.128,2.1l-13.073.452L42.446,16.8C36.6,8.2,22.625-2.947,17.242.716S17.1,21.471,22.951,30.064l9.838,14.457-5.219,12a2.593,2.593,0,0,0-2.37.277l-5.077,3.455a2.6,2.6,0,0,0-.686,3.607l3.013,4.428-4.874,11.2a2.538,2.538,0,0,0-3.325-.327L9.175,82.615a2.522,2.522,0,0,0-.782,3.465l3.852,5.661L0,119.887l9.466,11.89,17.2-22.806c2.373,1.909,4.554,2.909,6,1.944,1.91-1.279,1.048-4.879-.772-8.871L40.97,90c1.637,1.012,3.075,1.379,4.1.694,1.448-.968,1.223-3.386.164-6.347l7.7-10.217L72.73,103.216a56.338,56.338,0,0,0,8.949,9.833L70.445,140.62l3.639,6.683,19.358-26.1c5.477,6.488,12.234,13.659,14.07,11.972,1.8-1.657-2.219-10.186-6.108-17.372l31.336-8.418Z" transform="translate(612.097 0)"/><g transform="translate(0 62.278)"><path class="b" d="M46.881,23.416a23.416,23.416,0,1,0-46.832,0A11.462,11.462,0,0,0,.4,27.445,23.3,23.3,0,0,0,1.685,32.03c2.407,7.021,8.166,18.91,21.781,37.7,13.615-18.787,19.373-30.676,21.78-37.7a23.193,23.193,0,0,0,1.289-4.584A11.442,11.442,0,0,0,46.881,23.416ZM23.465,37.62a14.2,14.2,0,1,1,14.2-14.2A14.2,14.2,0,0,1,23.465,37.62Z" transform="translate(0 0)"/><circle class="b" cx="5.24" cy="5.24" r="5.24" transform="translate(16.055 79.73) rotate(-45)"/></g></g></svg>