<svg xmlns="http://www.w3.org/2000/svg" width="115.239" height="104.553" viewBox="0 0 115.239 104.553"><defs><style>.a{fill:#ffa85d;}</style></defs><g transform="translate(-635.805 -132.312)"><path class="a" d="M724.918,193.864c0,2.382-.032,4.764.015,7.145a2.041,2.041,0,0,1-1.19,2.1c-1.353.678-2.662,1.453-4.044,2.064a1.661,1.661,0,0,0-1.167,1.682A27.236,27.236,0,0,1,684.576,232.7c-10.758-2.83-18.968-11.871-20.092-22.814-.337-3.29-1.04-5.551-4.354-6.627-1.924-.623-2.533-2.12-2.409-4.2.264-4.424-.23-8.874.316-13.3,1.143-9.26,6.819-14.482,15.339-17.131,1.443-.449,2.934-.749,4.408-1.094a14.025,14.025,0,0,1,8.538.4,16.79,16.79,0,0,0,12.226-.382,7.856,7.856,0,0,1,4.234-.547c5.285.813,10.409,2.011,14.836,5.253,5.067,3.709,6.874,8.993,7.236,14.947.135,2.212.022,4.438.022,6.657ZM691.377,184a22.392,22.392,0,1,0,22.356,22.355A22.142,22.142,0,0,0,691.377,184Z" transform="translate(2.091 3.304)"/><path class="a" d="M690.006,132.312a17.937,17.937,0,1,1-17.968,17.814A17.923,17.923,0,0,1,690.006,132.312Z" transform="translate(3.459 0)"/><path class="a" d="M667.975,167.937c-.42.877-1.219,1.151-1.871,1.6-5.9,4.018-8.532,9.837-9.33,16.7-.534,4.583-.238,9.183-.276,13.777-.011,1.294-.274,1.85-1.757,1.65-2.253-.3-4.479-.729-6.719-1.1a2.159,2.159,0,0,1-2.007-2.121,61.742,61.742,0,0,0-1.242-6.551c0,2.049-.036,4.1.014,6.146.03,1.219-.4,1.534-1.557,1.14a37.358,37.358,0,0,1-6.34-2.883,1.774,1.774,0,0,1-1.044-1.687c.122-4.428-.334-8.872.323-13.284.9-6.024,4.277-10.013,10-12.027a35.884,35.884,0,0,1,5.3-1.516,10.734,10.734,0,0,1,6.173.336A14.139,14.139,0,0,0,667.975,167.937Z" transform="translate(0 3.358)"/><path class="a" d="M713.185,168.842a1.8,1.8,0,0,1,1.517-.15,13.3,13.3,0,0,0,7.942-.846,6,6,0,0,1,3.474-.343,40.62,40.62,0,0,1,7.227,1.776c6.757,2.493,9.941,7.509,10.236,14.5.147,3.51.023,7.031.068,10.545a2.107,2.107,0,0,1-1.227,2.082,35.71,35.71,0,0,1-5.906,2.665c-1.651.53-1.79.45-1.805-1.229-.019-2,0-4-.168-6.019-.379,2.271-.8,4.535-1.119,6.815a1.987,1.987,0,0,1-1.844,1.892c-2.233.4-4.467.787-6.713,1.121-1.661.248-1.938-.4-1.906-1.818.067-3.028.094-6.06,0-9.086a43.631,43.631,0,0,0-1.094-9.642A20.168,20.168,0,0,0,713.185,168.842Z" transform="translate(7.388 3.349)"/><path class="a" d="M716.658,168.459c-4-.177-8.073-2.4-10.942-6.83a2.214,2.214,0,0,1-.077-2.531,20.606,20.606,0,0,0,1.995-13.068,2.5,2.5,0,0,1,.884-2.575,14.272,14.272,0,0,1,23.44,8.119C733.592,160.52,726.875,168.472,716.658,168.459Z" transform="translate(6.633 0.717)"/><path class="a" d="M660.912,168.421c-7.459-.066-13.468-5.929-14.013-13.675-.478-6.772,5.047-13.6,11.914-14.674a13.894,13.894,0,0,1,11.878,3.409,2.406,2.406,0,0,1,.871,2.426,20.686,20.686,0,0,0,2.062,13.369,2,2,0,0,1-.1,2.242A14.216,14.216,0,0,1,660.912,168.421Z" transform="translate(1.056 0.721)"/><path class="a" d="M682.855,193.207a7.493,7.493,0,0,1,6.031,3.4c.6.91.853.969,1.523.026a7.225,7.225,0,0,1,9.266-2.665c3.324,1.55,4.9,5.167,3.86,9.027-.869,3.231-2.871,5.8-5.1,8.182a48.123,48.123,0,0,1-7.55,6.372,1.668,1.668,0,0,1-2.2.188c-4.256-3.022-8.3-6.265-11.109-10.765-1.542-2.472-2.672-5.088-1.925-8.126A7.462,7.462,0,0,1,682.855,193.207Z" transform="translate(3.782 5.814)"/></g></svg>