<svg xmlns="http://www.w3.org/2000/svg" width="55.887" height="55.889" viewBox="0 0 55.887 55.889"><defs><style>.a{fill:#fff;}</style></defs><path class="a" d="M21.487,26.31H4.823A4.83,4.83,0,0,1,0,21.484V4.823A4.828,4.828,0,0,1,4.823,0H21.487A4.828,4.828,0,0,1,26.31,4.823V21.484A4.83,4.83,0,0,1,21.487,26.31ZM13.147,4.493a8.661,8.661,0,1,0,8.66,8.662A8.672,8.672,0,0,0,13.147,4.493Zm8.94-2.3A2.046,2.046,0,1,0,24.133,4.24,2.048,2.048,0,0,0,22.087,2.195Z" transform="translate(14.797 14.875)"/><circle class="a" cx="4.989" cy="4.989" r="4.989" transform="translate(22.955 23.04)"/><path class="a" d="M27.945,55.889A27.945,27.945,0,1,1,55.887,27.945,27.976,27.976,0,0,1,27.945,55.889ZM19.62,11.215A8.493,8.493,0,0,0,11.137,19.7V36.36a8.493,8.493,0,0,0,8.483,8.483H36.284a8.493,8.493,0,0,0,8.483-8.483V19.7a8.493,8.493,0,0,0-8.483-8.483Z"/></svg>