<svg xmlns="http://www.w3.org/2000/svg" xmlns:xlink="http://www.w3.org/1999/xlink" width="154.614" height="58.877" viewBox="0 0 154.614 58.877"><defs><style>.a{fill:none;}.b{clip-path:url(#a);}.c{fill:#409;}</style><clipPath id="a"><rect class="a" width="154.614" height="58.877"/></clipPath></defs><g transform="translate(116.565 44.072)"><g class="b" transform="translate(-116.565 -44.072)"><path class="c" d="M21.436,47.455a5.917,5.917,0,0,1-5.59-3.69L10.257,30.9.543,8.706A5.878,5.878,0,1,1,11.234,3.822L18.56,20.591,26.592,39.1a5.807,5.807,0,0,1-3.365,7.923l-1.845.38" transform="translate(0 -0.132)"/><path class="c" d="M251.5,35.29a21.488,21.488,0,0,1,3.039-1.465c3.473-.977,6.675-.6,9.334,2.117a8.412,8.412,0,0,1,2.225,5.97c.054,4.179,0,8.358,0,12.536a3.245,3.245,0,0,1-1.845,3.31,4.342,4.342,0,0,1-4.5-.38A3.626,3.626,0,0,1,258.5,54.23V43.593a4.719,4.719,0,0,0-.109-1.031,3.473,3.473,0,0,0-6.838.217,7.649,7.649,0,0,0-.054,1.031V54.23a6.134,6.134,0,0,1-.163,1.411,2.822,2.822,0,0,1-2.388,2.388,7.706,7.706,0,0,1-2.659,0,3.039,3.039,0,0,1-2.334-2.822,8.3,8.3,0,0,1-.054-1.031V27.964a6.782,6.782,0,0,1,.109-1.248,3.367,3.367,0,0,1,3.853-2.822,3.564,3.564,0,0,1,3.636,3.745V35.29" transform="translate(-111.536 -10.923)"/><path class="c" d="M211.8,63.2l-.326.543c-2.768,2.768-8.195,3.256-11.451,1.14a6.241,6.241,0,0,1-2.876-4.993,13.514,13.514,0,0,1,.163-3.8c.6-2.659,2.6-4.016,5.1-4.667a13.242,13.242,0,0,1,2.822-.326h6.024c.488-2.876-1.737-4.721-4.559-3.8a8.086,8.086,0,0,0-2.062,1.14,4.016,4.016,0,0,1-5.373-.6,2.551,2.551,0,0,1-.109-3.419,6.621,6.621,0,0,1,3.256-2.117,16.323,16.323,0,0,1,11.668.271c3.853,1.628,4.939,3.8,4.884,7.435s0,8.195,0,12.319a7.86,7.86,0,0,1-.054.814c-.326,2.822-2.442,3.419-4.667,2.876a2.876,2.876,0,0,1-1.954-1.9l-.271-.76Zm-.488-7.055c-1.574,0-3.148-.054-4.721,0a1.845,1.845,0,0,0-1.9,1.737,2.008,2.008,0,0,0,1.357,2.171,3.8,3.8,0,0,0,5.21-3.907Z" transform="translate(-90.125 -18.914)"/><path class="c" d="M166.969,63.253a8.629,8.629,0,0,1-4.884,2.659,10.365,10.365,0,0,1-5.264-.271,6.512,6.512,0,0,1-4.667-6.024,13.133,13.133,0,0,1,.163-3.582c.6-2.713,2.6-4.07,5.1-4.721a12.537,12.537,0,0,1,2.768-.326h6.078a3.2,3.2,0,0,0-3.962-3.962,6.241,6.241,0,0,0-2.6,1.248,3.907,3.907,0,0,1-5.264-.434,2.551,2.551,0,0,1-.163-3.636l.109-.109a7.272,7.272,0,0,1,3.365-2.008,16.164,16.164,0,0,1,11.505.434c3.745,1.682,4.721,3.8,4.721,7.272V62.222a6.241,6.241,0,0,1-.163,1.411,2.931,2.931,0,0,1-2.768,2.442c-1.954.109-3.2-.543-3.745-2.062l-.271-.814m-.651-7.164h-4.559l-.543.109a1.791,1.791,0,0,0-1.465,1.628,1.867,1.867,0,0,0,1.248,2.117,5.264,5.264,0,0,0,1.954.217,3.444,3.444,0,0,0,3.365-4.07" transform="translate(-69.555 -18.861)"/><path class="c" d="M46.376,40.544l-1.628-3.8L40.189,26.379a1.3,1.3,0,0,1,0-1.14L49.524,3.749A5.8,5.8,0,0,1,57.23.493a5.861,5.861,0,0,1,3.039,7.869L49.47,33.489l-2.876,6.675-.217.38" transform="translate(-18.319 -0.004)"/><path class="c" d="M64.1,53.684a38.009,38.009,0,0,1,.6-4.993,9.216,9.216,0,0,1,6.024-6.512,14.273,14.273,0,0,1,10.366,0,9.464,9.464,0,0,1,6.4,8.629,34.352,34.352,0,0,1-.054,6.187c-.434,4.287-2.931,7.109-7,8.412a14.382,14.382,0,0,1-9.769-.217,9.769,9.769,0,0,1-6.4-9.28V53.684Zm15.955.054H80V51.676a3.907,3.907,0,0,0-3.907-3.853,3.8,3.8,0,0,0-4.124,3.636,36.249,36.249,0,0,0,0,4.667,4.049,4.049,0,0,0,7.923.543,21.658,21.658,0,0,0,.217-2.876Z" transform="translate(-29.313 -18.843)"/><path class="c" d="M120.884,55.489l1.194-4.287,1.954-7a6.187,6.187,0,0,1,.326-.868,3.2,3.2,0,0,1,3.473-2.062c1.682.109,3.256,1.194,3.473,2.6a5.319,5.319,0,0,1-.217,2.442q-3.528,10.2-7.164,20.405a11.739,11.739,0,0,1-5.21,6.621A10.311,10.311,0,0,1,112.8,74.7a2.442,2.442,0,0,1-2.388-2.117,6.024,6.024,0,0,1,.054-2.171,2.169,2.169,0,0,1,2.279-1.628,3.365,3.365,0,0,0,2.931-1.411,12.7,12.7,0,0,0,1.031-2.388c.054-.163-.054-.38-.109-.543L110.03,46.481a6.783,6.783,0,0,1-.38-1.411,2.768,2.768,0,0,1,1.357-2.985,6.024,6.024,0,0,1,2.171-.706c1.9-.217,3.2.706,3.853,2.659l2.442,7.543,1.3,3.907Z" transform="translate(-50.116 -18.857)"/><path class="c" d="M50.976,92.687a5.753,5.753,0,0,1-5.807,5.753h-.109c-2.985,0-5.753-2.117-5.861-6.132A5.753,5.753,0,0,1,44.9,86.5h.217c2.931,0,5.753,2.171,5.861,6.132" transform="translate(-17.926 -39.557)"/></g></g></svg>