<svg xmlns="http://www.w3.org/2000/svg" xmlns:xlink="http://www.w3.org/1999/xlink" width="387.402" height="147.523" viewBox="0 0 387.402 147.523"><defs><style>.a{fill:none;}.b{clip-path:url(#a);}.c{fill:#fff;}</style><clipPath id="a"><rect class="a" width="387.402" height="147.523"/></clipPath></defs><g transform="translate(116.565 44.072)"><g class="b" transform="translate(-116.565 -44.072)"><path class="c" d="M53.712,118.469c-6.935-.408-11.422-3.4-14.006-9.247L25.7,77,1.36,21.381C-1.632,14.31.408,6.7,6.527,2.752A14.686,14.686,0,0,1,28.148,9.143L46.5,51.16,66.629,97.529A14.55,14.55,0,0,1,58.2,117.382l-4.623.952" transform="translate(0 0.104)"/><path class="c" d="M262.937,52.461a53.839,53.839,0,0,1,7.615-3.671c8.7-2.448,16.725-1.5,23.388,5.3a21.077,21.077,0,0,1,5.575,14.958c.136,10.47,0,20.941,0,31.411,0,3.535-1.088,6.8-4.623,8.295a10.878,10.878,0,0,1-11.286-.952c-2.583-1.9-3.128-4.9-3.128-7.887V73.265a11.826,11.826,0,0,0-.272-2.584,8.7,8.7,0,0,0-17.133.544,19.174,19.174,0,0,0-.136,2.584V99.917a15.366,15.366,0,0,1-.408,3.535,7.071,7.071,0,0,1-5.983,5.983,19.309,19.309,0,0,1-6.663,0,7.615,7.615,0,0,1-5.847-7.071,20.8,20.8,0,0,1-.136-2.584V34.1a16.994,16.994,0,0,1,.272-3.128c.816-4.759,4.487-7.343,9.654-7.071s9.111,3.535,9.111,9.383V52.461" transform="translate(87.751 8.594)"/><path class="c" d="M233.957,96.077l-.816,1.36c-6.935,6.935-20.533,8.159-28.691,2.856a15.637,15.637,0,0,1-7.207-12.51,33.859,33.859,0,0,1,.408-9.518c1.5-6.663,6.527-10.062,12.782-11.694a33.18,33.18,0,0,1,7.071-.816H232.6c1.224-7.207-4.351-11.83-11.422-9.518a20.26,20.26,0,0,0-5.167,2.856,10.062,10.062,0,0,1-13.462-1.5,6.391,6.391,0,0,1-.272-8.567,16.59,16.59,0,0,1,8.159-5.3c9.79-3.128,19.581-3.4,29.235.68s12.374,9.518,12.238,18.629,0,20.533,0,30.867a19.677,19.677,0,0,1-.136,2.04c-.816,7.071-6.119,8.567-11.694,7.207a7.207,7.207,0,0,1-4.9-4.759l-.68-1.9ZM232.734,78.4c-3.943,0-7.887-.136-11.83,0a4.623,4.623,0,0,0-4.759,4.351,5.031,5.031,0,0,0,3.4,5.439A9.518,9.518,0,0,0,232.6,78.4Z" transform="translate(70.906 14.881)"/><path class="c" d="M189.358,96.392a21.621,21.621,0,0,1-12.238,6.663,25.972,25.972,0,0,1-13.19-.68,16.317,16.317,0,0,1-11.694-15.094,32.905,32.905,0,0,1,.408-8.975c1.5-6.8,6.527-10.2,12.782-11.83a31.412,31.412,0,0,1,6.935-.816h15.23c1.36-6.527-3.4-11.15-9.926-9.926a15.637,15.637,0,0,0-6.527,3.128,9.79,9.79,0,0,1-13.19-1.088,6.391,6.391,0,0,1-.408-9.111l.272-.272a18.221,18.221,0,0,1,8.431-5.031c9.79-2.856,19.445-3.128,28.827,1.088s11.83,9.518,11.83,18.221V93.808a15.638,15.638,0,0,1-.408,3.535,7.343,7.343,0,0,1-6.935,6.119c-4.9.272-8.023-1.36-9.382-5.167l-.68-2.04m-1.632-17.949H176.44l-1.36.272a4.487,4.487,0,0,0-3.671,4.079c-.136,2.584.816,4.623,3.128,5.3a13.19,13.19,0,0,0,4.9.544c5.711-.408,9.247-4.759,8.431-10.2" transform="translate(54.723 14.839)"/><path class="c" d="M55.889,101.572l-4.079-9.518L40.387,66.082a3.263,3.263,0,0,1,0-2.856L63.775,9.379c3.4-7.887,11.694-11.422,19.309-8.159A14.686,14.686,0,0,1,90.7,20.937L63.639,83.9l-7.207,16.725-.544.952" transform="translate(14.412 0.003)"/><path class="c" d="M64.1,72.473c.408-4.215.544-8.431,1.5-12.51,2.04-8.023,7.479-13.462,15.094-16.317a35.762,35.762,0,0,1,25.972,0c9.79,3.807,15.23,11.15,16.045,21.621a86.073,86.073,0,0,1-.136,15.5c-1.088,10.742-7.343,17.813-17.541,21.077a36.034,36.034,0,0,1-24.476-.544A24.476,24.476,0,0,1,64.508,78.048V72.473Zm39.978.136h-.136V67.442a9.79,9.79,0,0,0-9.79-9.654A9.518,9.518,0,0,0,83.817,66.9a90.828,90.828,0,0,0,0,11.694c.272,5.031,4.215,8.431,9.654,8.839a9.518,9.518,0,0,0,10.2-7.479,54.266,54.266,0,0,0,.544-7.207Z" transform="translate(23.062 14.825)"/><path class="c" d="M137.887,76.949l2.992-10.742,4.9-17.541a15.5,15.5,0,0,1,.816-2.176,8.023,8.023,0,0,1,8.7-5.167c4.215.272,8.159,2.992,8.7,6.527a13.327,13.327,0,0,1-.544,6.119Q154.612,79.533,145.5,105.1c-2.448,6.935-6.527,12.918-13.054,16.589a25.836,25.836,0,0,1-14.822,3.4,6.119,6.119,0,0,1-5.983-5.3,15.094,15.094,0,0,1,.136-5.439c.544-2.584,2.72-3.943,5.711-4.079a8.431,8.431,0,0,0,7.343-3.535,31.819,31.819,0,0,0,2.584-5.983c.136-.408-.136-.952-.272-1.36L110.691,54.377a16.994,16.994,0,0,1-.952-3.535,6.935,6.935,0,0,1,3.4-7.479,15.093,15.093,0,0,1,5.439-1.768c4.759-.544,8.023,1.768,9.654,6.663l6.119,18.9,3.263,9.79Z" transform="translate(39.429 14.836)"/><path class="c" d="M68.707,102a14.414,14.414,0,0,1-14.55,14.414h-.272c-7.479,0-14.414-5.3-14.686-15.366A14.414,14.414,0,0,1,53.478,86.5h.544c7.343,0,14.414,5.439,14.686,15.366" transform="translate(14.103 31.121)"/></g></g></svg>