<svg xmlns="http://www.w3.org/2000/svg" xmlns:xlink="http://www.w3.org/1999/xlink" width="25.748" height="19.596" viewBox="0 0 25.748 19.596"><defs><style>.a{fill:none;}.b{clip-path:url(#a);}.c{fill:#fff;}</style><clipPath id="a"><rect class="a" width="25.748" height="19.596"/></clipPath></defs><g transform="translate(15.986 12.166)"><g class="b" transform="translate(-15.986 -12.166)"><path class="c" d="M12.841,19.585H2.789a2.594,2.594,0,0,1-2.724-2.27A2.854,2.854,0,0,1,0,16.8V2.787A2.854,2.854,0,0,1,1.1.517,2.205,2.205,0,0,1,2.529,0h8.918C15.273.031,19.1.063,22.894,0a2.756,2.756,0,0,1,2.821,2.789V16.8a2.789,2.789,0,0,1-1.394,2.5,2.108,2.108,0,0,1-1.135.292H12.841M23.64,3.728a.519.519,0,0,0-.259.162l-8.95,8.2a2.432,2.432,0,0,1-3.34-.032L6.615,7.749,2.5,3.76a1.751,1.751,0,0,0-.454-.389v13.1a2.529,2.529,0,0,0,.032.422.607.607,0,0,0,.713.616H22.8c.616,0,.811-.162.876-.778a2.53,2.53,0,0,0,0-.292q0-6.226,0-12.485A.454.454,0,0,0,23.64,3.7M3.729,2.041a.713.713,0,0,0,.227.292L6.55,4.83l5.9,5.675a.389.389,0,0,0,.649,0l3.048-2.789L21.24,3.079l1.005-.94c-6.161-.065-12.323-.032-18.516-.13" transform="translate(0 0.002)"/></g></g></svg>