<svg xmlns="http://www.w3.org/2000/svg" width="20.083" height="28.653" viewBox="0 0 20.083 28.653"><defs><style>.a{fill:#409;}</style></defs><path class="a" d="M10.088,0a10.121,10.121,0,0,1,8.17,15.852c-2.312,3.587-4.589,7.191-6.884,10.8-.382.595-.782,1.19-1.147,1.8-.174.28-.3.262-.452,0L7.1,24.25c-1.877-2.939-3.772-5.9-5.632-8.853a9.806,9.806,0,0,1-1.46-4.479A9.744,9.744,0,0,1,1.327,5.056,9.85,9.85,0,0,1,8.141.192,12.836,12.836,0,0,1,10.088,0M10,13.77a3.664,3.664,0,0,0,3.668-3.552A3.781,3.781,0,0,0,9.984,6.439a3.6,3.6,0,0,0-3.633,3.8A3.521,3.521,0,0,0,10,13.77" transform="translate(0.035)"/></svg>