<svg xmlns="http://www.w3.org/2000/svg" width="55.664" height="55.664" viewBox="0 0 55.664 55.664"><defs><style>.a{fill:#fff;}.b{fill:#5900ce;}</style></defs><path class="a" d="M27.832,0A27.832,27.832,0,1,1,0,27.832,27.832,27.832,0,0,1,27.832,0Z"/><path class="b" d="M700.822,69.419c-2.1-.163-2.988-1.206-4.638-2.208-.907,4.758-2.015,9.319-5.3,11.7-1.015-7.191,1.487-12.592,2.649-18.325-1.98-3.333.238-10.043,4.416-8.39,5.141,2.033-4.451,12.4,1.988,13.69,6.722,1.351,9.467-11.664,5.3-15.9-6.023-6.112-17.532-.139-16.117,8.611.344,2.139,2.555,2.789.883,5.74-3.855-.853-5-3.894-4.857-7.947.239-6.635,5.962-11.281,11.7-11.924,7.26-.813,14.074,2.666,15.015,9.495,1.058,7.708-3.278,16.054-11.04,15.455Z" transform="translate(-670.747 -32.153)"/></svg>