<svg xmlns="http://www.w3.org/2000/svg" width="55.664" height="55.664" viewBox="0 0 55.664 55.664"><defs><style>.a{fill:#fff;}.b{fill:#5200be;}</style></defs><circle class="a" cx="27.832" cy="27.832" r="27.832"/><path class="b" d="M777.422,49.119a13.265,13.265,0,0,1-3.82,1.046,6.672,6.672,0,0,0,2.925-3.679A13.322,13.322,0,0,1,772.3,48.1a6.657,6.657,0,0,0-11.335,6.068,18.883,18.883,0,0,1-13.711-6.951,6.661,6.661,0,0,0,2.058,8.881,6.6,6.6,0,0,1-3.012-.833c0,.028,0,.056,0,.084a6.655,6.655,0,0,0,5.336,6.522,6.667,6.667,0,0,1-3,.115,6.659,6.659,0,0,0,6.214,4.62A13.427,13.427,0,0,1,745,69.36a18.817,18.817,0,0,0,10.2,2.989c12.236,0,18.927-10.136,18.927-18.927q0-.432-.02-.86a13.474,13.474,0,0,0,3.32-3.443Z" transform="translate(-730.986 -29.183)"/></svg>