<svg xmlns="http://www.w3.org/2000/svg" width="55.664" height="55.664" viewBox="0 0 55.664 55.664"><defs><style>.a{fill:#fff;}.b{fill:#5900ce;}</style></defs><circle class="a" cx="27.832" cy="27.832" r="27.832"/><path class="b" d="M671.053,67.636h2.185a1.846,1.846,0,0,0,1-.436,1.6,1.6,0,0,0,.3-.959s-.043-2.931,1.317-3.362c1.341-.425,3.063,2.833,4.888,4.085a3.46,3.46,0,0,0,2.429.74l4.88-.068s2.553-.157,1.342-2.164c-.1-.164-.7-1.485-3.628-4.2-3.06-2.84-2.65-2.38,1.036-7.293,2.245-2.992,3.142-4.818,2.862-5.6-.267-.745-1.918-.548-1.918-.548l-5.495.034a1.246,1.246,0,0,0-.709.125,1.545,1.545,0,0,0-.485.59,31.8,31.8,0,0,1-2.03,4.284c-2.446,4.155-3.424,4.374-3.824,4.116-.93-.6-.7-2.415-.7-3.7,0-4.026.61-5.7-1.189-6.14a9.4,9.4,0,0,0-2.564-.255,11.84,11.84,0,0,0-4.56.466c-.625.306-1.107.988-.813,1.027a2.469,2.469,0,0,1,1.622.815,5.308,5.308,0,0,1,.543,2.486s.323,4.74-.756,5.328c-.741.4-1.756-.42-3.938-4.19a35.06,35.06,0,0,1-1.961-4.065,1.636,1.636,0,0,0-.453-.612,2.278,2.278,0,0,0-.844-.341l-5.221.034s-.784.022-1.072.363c-.256.3-.02.93-.02.93s4.087,9.563,8.716,14.383a12.536,12.536,0,0,0,9.063,4.129Z" transform="translate(-644.276 -27.602)"/></svg>